<svg width="17" height="13" viewBox="0 0 17 13" fill="none" xmlns="http://www.w3.org/2000/svg">
<path fill-rule="evenodd" clip-rule="evenodd" d="M8.49783 1.13337C10.1174 1.13337 11.6061 1.9919 12.8205 2.99777C13.9334 3.94494 14.9186 5.03263 15.7514 6.23356C14.9191 7.43453 13.9343 8.52223 12.8216 9.46934C11.6061 10.4752 10.1174 11.3337 8.49783 11.3337C6.87823 11.3337 5.38955 10.4752 4.17514 9.46934C3.06221 8.52217 2.07701 7.43448 1.24423 6.23356C2.0765 5.03258 3.06134 3.94488 4.17401 2.99777C5.38955 1.9919 6.87823 1.13337 8.49783 1.13337ZM8.49783 0C6.61416 0 4.86423 0.954867 3.45431 2.12508C2.15768 3.22901 1.02383 4.51092 0.0864924 5.93264C0.029975 6.02284 0 6.12712 0 6.23356C0 6.33999 0.029975 6.44428 0.0864924 6.53447C1.02383 7.9562 2.15768 9.2381 3.45431 10.342C4.86423 11.5122 6.61416 12.4671 8.49783 12.4671C10.3815 12.4671 12.1314 11.5122 13.5413 10.342C14.838 9.2381 15.9718 7.9562 16.9092 6.53447C16.9657 6.44428 16.9957 6.33999 16.9957 6.23356C16.9957 6.12712 16.9657 6.02284 16.9092 5.93264C15.9718 4.51092 14.838 3.22901 13.5413 2.12508C12.1314 0.954867 10.3815 0 8.49783 0Z" fill="black"/>
<path fill-rule="evenodd" clip-rule="evenodd" d="M8.49781 4.53349C8.83405 4.53349 9.16274 4.6332 9.44231 4.82C9.72189 5.00681 9.93979 5.27232 10.0685 5.58297C10.1971 5.89361 10.2308 6.23544 10.1652 6.56522C10.0996 6.895 9.93769 7.19792 9.69994 7.43568C9.46218 7.67343 9.15926 7.83535 8.82948 7.90094C8.4997 7.96654 8.15787 7.93288 7.84723 7.8042C7.53658 7.67553 7.27107 7.45763 7.08426 7.17805C6.89746 6.89848 6.79775 6.56979 6.79775 6.23355C6.79775 5.78267 6.97686 5.35025 7.29569 5.03143C7.61451 4.7126 8.04693 4.53349 8.49781 4.53349ZM8.49781 3.40012C7.93741 3.40012 7.3896 3.56629 6.92364 3.87764C6.45768 4.18898 6.09451 4.6315 5.88006 5.14924C5.6656 5.66698 5.60949 6.23669 5.71882 6.78633C5.82815 7.33596 6.09801 7.84083 6.49427 8.23709C6.89053 8.63335 7.3954 8.90321 7.94504 9.01254C8.49467 9.12187 9.06438 9.06576 9.58212 8.8513C10.0999 8.63685 10.5424 8.27368 10.8537 7.80772C11.1651 7.34177 11.3312 6.79395 11.3312 6.23355C11.3312 5.48208 11.0327 4.76138 10.5014 4.23001C9.96998 3.69864 9.24928 3.40012 8.49781 3.40012Z" fill="black"/>
</svg>
